<svg width="21" height="20" viewBox="0 0 21 20" fill="none" xmlns="http://www.w3.org/2000/svg">
<g clip-path="url(#clip0_851_2777)">
<path fill-rule="evenodd" clip-rule="evenodd" d="M12.7767 3.375H8.225C7.54787 3.37499 7.00169 3.37499 6.55942 3.41112C6.10402 3.44832 5.70402 3.52692 5.33391 3.71544C4.74601 4.01491 4.26798 4.49277 3.96829 5.08056C3.77963 5.45056 3.70088 5.85056 3.66351 6.30594C3.62722 6.74825 3.62702 7.29438 3.62677 7.9715L3.62599 10.064C3.62592 10.2348 3.62586 10.351 3.63258 10.4538C3.72957 11.9379 4.85542 13.1358 6.30614 13.3433C6.30427 13.3531 6.30227 13.3628 6.30014 13.3726C6.26674 13.5268 6.19419 13.7259 5.9966 14.1477C5.99354 14.1543 5.99045 14.1608 5.98734 14.1674C5.93191 14.2857 5.87248 14.4124 5.83327 14.5234C5.79248 14.6388 5.73399 14.8394 5.78862 15.0702C5.85329 15.3433 6.04469 15.5802 6.29811 15.7008C6.5057 15.7995 6.70561 15.7894 6.83075 15.7741C6.9445 15.7602 7.07537 15.73 7.19269 15.7029C7.19975 15.7013 7.20675 15.6997 7.21369 15.6981C8.52219 15.3964 9.35162 14.882 9.89218 14.3324C10.2315 13.9875 10.4437 13.6381 10.5801 13.375H12.7767C13.4541 13.375 14.0004 13.375 14.4429 13.3389C14.8984 13.3016 15.2986 13.223 15.6687 13.0344C16.2567 12.7348 16.7348 12.2568 17.0344 11.6688C17.223 11.2986 17.3016 10.8984 17.3389 10.4429C17.375 10.0004 17.375 9.45413 17.375 8.77675V7.97325C17.375 7.29588 17.375 6.74956 17.3389 6.30713C17.3016 5.85156 17.223 5.45144 17.0344 5.08128C16.7348 4.49328 16.2567 4.01521 15.6687 3.71561C15.2986 3.52699 14.8984 3.44836 14.4429 3.41114C14.0004 3.37499 13.4541 3.37499 12.7767 3.375ZM7.58487 12.75C7.58487 12.4048 7.30506 12.125 6.95987 12.125C6.75594 12.125 6.68421 12.1247 6.62795 12.1209C5.68904 12.0593 4.94128 11.3112 4.87992 10.3723C4.87624 10.316 4.87593 10.2443 4.876 10.0404L4.87676 7.99875C4.87702 7.28863 4.8777 6.79356 4.90932 6.40819C4.94035 6.03013 4.99801 5.81288 5.0819 5.64831C5.26172 5.29569 5.54854 5.00895 5.90127 4.82927C6.06584 4.74544 6.28309 4.68786 6.6612 4.65697C7.04662 4.62549 7.54162 4.625 8.25175 4.625H12.75C13.4604 4.625 13.9556 4.62549 14.3411 4.65699C14.7193 4.68789 14.9366 4.74549 15.1012 4.82936C15.4541 5.00913 15.7409 5.29594 15.9206 5.64875C16.0045 5.81337 16.0621 6.03069 16.093 6.40888C16.1245 6.79444 16.125 7.28963 16.125 8V8.75C16.125 9.46038 16.1245 9.95556 16.093 10.3411C16.0621 10.7193 16.0045 10.9366 15.9206 11.1013C15.7409 11.4541 15.4541 11.7409 15.1012 11.9206C14.9366 12.0045 14.7193 12.0621 14.3411 12.093C13.9556 12.1245 13.4604 12.125 12.75 12.125H10.1881C9.94993 12.125 9.7325 12.2603 9.62731 12.474C9.608 12.5133 9.58881 12.5538 9.56912 12.5954C9.4495 12.8477 9.31025 13.1416 9.00106 13.4559C8.68456 13.7777 8.16244 14.1414 7.25669 14.3972C7.38544 14.1051 7.4715 13.8694 7.52181 13.6373C7.58512 13.3449 7.585 13.0829 7.58487 12.7898C7.58487 12.7766 7.58487 12.7633 7.58487 12.75Z" fill="#666666"/>
</g>
<defs>
<clipPath id="clip0_851_2777">
<rect width="20" height="20" fill="white" transform="translate(0.5)"/>
</clipPath>
</defs>
</svg>
