<svg width="21" height="20" viewBox="0 0 21 20" fill="none" xmlns="http://www.w3.org/2000/svg">
<g clip-path="url(#clip0_851_2771)">
<path fill-rule="evenodd" clip-rule="evenodd" d="M10.8678 15.1993C11.0845 15.0859 11.2323 14.8807 11.2567 14.6638C11.3829 13.5381 11.6832 12.1411 12.3934 10.9785C12.7207 10.4426 12.8999 9.71052 12.9677 8.88765C13.0348 8.07327 12.989 7.22246 12.9073 6.48877C12.8198 5.70293 12.1204 5.11108 11.2417 5.11108H7.92122C6.97359 5.11108 6.17489 5.81813 6.05998 6.75871L5.75225 9.27771C5.66125 10.0226 6.24255 10.6793 6.99303 10.6793H9.3174C9.51403 10.6793 9.69915 10.7718 9.81722 10.929C9.93528 11.0863 9.9724 11.2899 9.91753 11.4787C9.8504 11.7097 9.77922 11.9197 9.71765 12.1012C9.69834 12.1581 9.68003 12.2122 9.66303 12.2633C9.58915 12.4856 9.53609 12.6648 9.50459 12.8478C9.44565 13.1906 9.45072 13.615 9.67409 14.376C9.76778 14.6951 9.99084 14.9844 10.3042 15.1981C10.4515 15.2986 10.655 15.3108 10.8678 15.1993ZM11.4476 16.3068C10.9098 16.5883 10.2009 16.6408 9.59972 16.2307C9.08765 15.8814 8.6624 15.3675 8.47472 14.728C8.21384 13.8395 8.17284 13.2165 8.27265 12.636C8.31653 12.3809 8.38522 12.1485 8.45697 11.9293H6.99303C5.49208 11.9293 4.32947 10.616 4.51148 9.12608L4.81921 6.60715C5.01073 5.03942 6.34193 3.86108 7.92122 3.86108H11.2417C12.6673 3.86108 13.9822 4.84618 14.1497 6.35049C14.2365 7.13083 14.2895 8.06802 14.2135 8.99033C14.1382 9.90415 13.9322 10.8573 13.4602 11.6301C12.8877 12.5673 12.6164 13.7552 12.4989 14.8031C12.4222 15.4866 11.9814 16.0272 11.4476 16.3068Z" fill="#538DD1"/>
<path d="M17.375 10.1111C17.375 10.8015 16.8154 11.3611 16.125 11.3611C15.4346 11.3611 14.875 10.8015 14.875 10.1111V5.73608C14.875 5.04573 15.4346 4.48608 16.125 4.48608C16.8154 4.48608 17.375 5.04573 17.375 5.73608V10.1111Z" fill="#538DD1"/>
</g>
<defs>
<clipPath id="clip0_851_2771">
<rect width="20" height="20" fill="white" transform="translate(0.5)"/>
</clipPath>
</defs>
</svg>
