<svg width="21" height="20" viewBox="0 0 21 20" fill="none" xmlns="http://www.w3.org/2000/svg">
<mask id="mask0_586_771" style="mask-type:luminance" maskUnits="userSpaceOnUse" x="0" y="0" width="21" height="20">
<path d="M20.5 0H0.5V20H20.5V0Z" fill="white"/>
</mask>
<g mask="url(#mask0_586_771)">
<path fill-rule="evenodd" clip-rule="evenodd" d="M10.8673 15.1995C11.084 15.0861 11.2318 14.8809 11.2562 14.664C11.3824 13.5383 11.6827 12.1413 12.3929 10.9787C12.7202 10.4428 12.8994 9.71077 12.9672 8.8879C13.0343 8.07352 12.9885 7.22271 12.9068 6.48902C12.8193 5.70318 12.1199 5.11133 11.2412 5.11133H7.92073C6.9731 5.11133 6.1744 5.81838 6.05949 6.75896L5.75176 9.27796C5.66076 10.0228 6.24206 10.6795 6.99254 10.6795H9.31691C9.51354 10.6795 9.69866 10.772 9.81673 10.9292C9.93479 11.0865 9.97191 11.2901 9.91704 11.4789C9.84991 11.7099 9.77873 11.9199 9.71716 12.1014C9.69785 12.1583 9.67954 12.2124 9.66254 12.2635C9.58866 12.4858 9.5356 12.665 9.5041 12.848C9.44516 13.1908 9.45023 13.6152 9.6736 14.3762C9.76729 14.6953 9.99035 14.9846 10.3037 15.1983C10.451 15.2988 10.6545 15.311 10.8673 15.1995ZM11.4471 16.307C10.9093 16.5885 10.2004 16.641 9.59923 16.2309C9.08716 15.8816 8.66191 15.3677 8.47423 14.7282C8.21335 13.8397 8.17235 13.2167 8.27216 12.6362C8.31604 12.3811 8.38473 12.1487 8.45648 11.9295H6.99254C5.49159 11.9295 4.32898 10.6162 4.51099 9.12633L4.81872 6.6074C5.01024 5.03967 6.34144 3.86133 7.92073 3.86133H11.2412C12.6668 3.86133 13.9817 4.84643 14.1492 6.35074C14.236 7.13108 14.289 8.06827 14.213 8.99058C14.1377 9.9044 13.9317 10.8575 13.4597 11.6303C12.8872 12.5675 12.6159 13.7554 12.4984 14.8033C12.4217 15.4868 11.9809 16.0274 11.4471 16.307Z" fill="#538DD1"/>
<path d="M12 4.5H7.5L6 5L5 9.5L6 11H9V13L9.5 15.5L11.5 16L12 13.5L13.5 9.5V7L12 4.5Z" fill="#538DD1"/>
<path d="M17.375 10.1113C17.375 10.8017 16.8154 11.3613 16.125 11.3613C15.4346 11.3613 14.875 10.8017 14.875 10.1113V5.73633C14.875 5.04598 15.4346 4.48633 16.125 4.48633C16.8154 4.48633 17.375 5.04598 17.375 5.73633V10.1113Z" fill="#538DD1"/>
</g>
</svg>
