<svg version="1.1" xmlns="http://www.w3.org/2000/svg" xmlns:xlink="http://www.w3.org/1999/xlink" width="13" height="14" viewBox="0,0,237.70313,256"><g fill="#ed3a3a" fill-rule="nonzero" stroke="none" stroke-width="1" stroke-linecap="butt" stroke-linejoin="miter" stroke-miterlimit="10" stroke-dasharray="" stroke-dashoffset="0" font-family="none" font-weight="none" font-size="none" text-anchor="none" style="mix-blend-mode: normal"><g transform="translate(-0.00558,-0.00096) scale(18.28571,18.28571)"><path d="M0,0.50024c0,-0.13261 0.05268,-0.25979 0.14645,-0.35355c0.09377,-0.09377 0.22095,-0.14645 0.35355,-0.14645h12c0.1326,0 0.2598,0.05268 0.3536,0.14645c0.0937,0.09377 0.1464,0.22095 0.1464,0.35355v2c0,0.12331 -0.0456,0.24226 -0.128,0.334l-4.372,4.858v4.80796c-0.00008,0.1049 -0.03315,0.2072 -0.09453,0.2922c-0.06137,0.0851 -0.14795,0.1487 -0.24747,0.1818l-3,1c-0.07513,0.0251 -0.15512,0.0319 -0.2334,0.0199c-0.07828,-0.0119 -0.1526,-0.0423 -0.21685,-0.0885c-0.06425,-0.0463 -0.11659,-0.1072 -0.15271,-0.1777c-0.03611,-0.0704 -0.05498,-0.1485 -0.05504,-0.2277v-5.80796l-4.372,-4.858c-0.08239,-0.09174 -0.12798,-0.21069 -0.128,-0.334zM1,1.00024v1.308l4.372,4.858c0.08239,0.09175 0.12798,0.2107 0.128,0.334v5.30596l2,-0.666v-4.63996c0.00002,-0.1233 0.04561,-0.24225 0.128,-0.334l4.372,-4.858v-1.308z"></path></g></g></svg>