<svg width="18" height="15" viewBox="0 0 18 15" fill="none" xmlns="http://www.w3.org/2000/svg">
<path fill-rule="evenodd" clip-rule="evenodd" d="M5.3949 0.391541H12.6051C13.2894 0.391532 13.854 0.391524 14.314 0.428496C14.7918 0.466907 15.231 0.549332 15.6436 0.756138C16.2833 1.07686 16.8034 1.5886 17.1294 2.21803C17.3396 2.62393 17.4234 3.05605 17.4624 3.52612C17.5 3.97872 17.5 4.53427 17.5 5.20749V9.79253C17.5 10.4657 17.5 11.0213 17.4624 11.4739C17.4234 11.944 17.3396 12.3761 17.1294 12.782C16.8034 13.4114 16.2833 13.9231 15.6436 14.2439C15.231 14.4507 14.7918 14.5331 14.314 14.5715C13.854 14.6085 13.2894 14.6085 12.6051 14.6085H5.3949C4.71065 14.6085 4.14599 14.6085 3.68594 14.5715C3.20817 14.5331 2.76896 14.4507 2.35643 14.2439C1.71668 13.9231 1.19655 13.4114 0.870575 12.782C0.660378 12.3761 0.576602 11.944 0.537562 11.4739C0.499983 11.0213 0.499992 10.4657 0.5 9.79253V5.20749C0.499992 4.53427 0.499983 3.97872 0.537562 3.52612C0.576602 3.05605 0.660378 2.62393 0.870575 2.21803C1.19655 1.5886 1.71668 1.07686 2.35643 0.756138C2.76896 0.549332 3.20817 0.466907 3.68594 0.428496C4.14599 0.391524 4.71065 0.391532 5.3949 0.391541ZM3.82438 2.09552C3.45173 2.12548 3.26116 2.17978 3.12822 2.24642C2.80835 2.40677 2.54827 2.66265 2.38529 2.97735C2.31756 3.10815 2.26236 3.29564 2.23192 3.66227C2.20066 4.03869 2.2 4.52566 2.2 5.24202V9.75799C2.2 10.4744 2.20066 10.9613 2.23192 11.3377C2.26236 11.7044 2.31756 11.8919 2.38529 12.0227C2.54827 12.3374 2.80835 12.5933 3.12822 12.7536C3.26116 12.8202 3.45173 12.8745 3.82438 12.9045C4.20694 12.9352 4.70189 12.9359 5.43 12.9359H12.57C13.2981 12.9359 13.7931 12.9352 14.1757 12.9045C14.5483 12.8745 14.7389 12.8202 14.8718 12.7536C15.1917 12.5933 15.4518 12.3374 15.6147 12.0227C15.6824 11.8919 15.7376 11.7044 15.768 11.3377C15.7993 10.9613 15.8 10.4744 15.8 9.75799V5.24202C15.8 4.52566 15.7993 4.03869 15.768 3.66227C15.7376 3.29564 15.6824 3.10815 15.6147 2.97735C15.4518 2.66265 15.1917 2.40677 14.8718 2.24642C14.7389 2.17978 14.5483 2.12548 14.1757 2.09552C13.7931 2.06477 13.2981 2.06412 12.57 2.06412H5.43C4.70189 2.06412 4.20694 2.06477 3.82438 2.09552Z" fill="#B5B5B5"/>
<path d="M3.05005 10.4939V9.83765C3.05005 9.5922 3.05005 9.46943 3.07824 9.35394C3.10322 9.25158 3.14443 9.15365 3.20035 9.06392C3.26343 8.96264 3.35164 8.87583 3.52805 8.70222L4.44609 7.79903C4.85001 7.40162 5.05197 7.20292 5.28487 7.12849C5.48972 7.06301 5.71038 7.06301 5.91523 7.12849C6.14813 7.20292 6.35009 7.40162 6.75401 7.79903L6.99609 8.0372C7.40001 8.43461 7.60197 8.63331 7.83487 8.70774C8.03972 8.77322 8.26038 8.77322 8.46523 8.70774C8.69813 8.63331 8.90009 8.43461 9.30401 8.0372L11.2461 6.12645C11.65 5.72904 11.852 5.53034 12.0849 5.45591C12.2897 5.39043 12.5104 5.39043 12.7152 5.45591C12.9481 5.53034 13.1501 5.72904 13.554 6.12645L14.472 7.02964C14.6485 7.20326 14.7367 7.29006 14.7998 7.39134C14.8557 7.48107 14.8968 7.579 14.9218 7.68136C14.95 7.79685 14.95 7.91962 14.95 8.16507V10.4939C14.95 11.056 14.95 11.337 14.8389 11.5516C14.7411 11.7405 14.5851 11.894 14.3931 11.9902C14.1749 12.0996 13.8893 12.0996 13.318 12.0996H4.68205C4.11076 12.0996 3.82517 12.0996 3.60698 11.9902C3.41506 11.894 3.25901 11.7405 3.16122 11.5516C3.05005 11.337 3.05005 11.056 3.05005 10.4939Z" fill="#B5B5B5"/>
<path d="M8.99998 4.99112C8.99998 5.91489 8.23889 6.6637 7.29998 6.6637C6.36107 6.6637 5.59998 5.91489 5.59998 4.99112C5.59998 4.06736 6.36107 3.31854 7.29998 3.31854C8.23889 3.31854 8.99998 4.06736 8.99998 4.99112Z" fill="#B5B5B5"/>
</svg>
