<svg width="21" height="20" viewBox="0 0 21 20" fill="none" xmlns="http://www.w3.org/2000/svg">
<mask id="mask0_586_758" style="mask-type:luminance" maskUnits="userSpaceOnUse" x="0" y="0" width="21" height="20">
<path d="M20.5 0H0.5V20H20.5V0Z" fill="white"/>
</mask>
<g mask="url(#mask0_586_758)">
<path fill-rule="evenodd" clip-rule="evenodd" d="M10.1322 4.39718C9.91556 4.51066 9.76768 4.7158 9.74331 4.93272C9.61712 6.05842 9.31681 7.4554 8.60662 8.61808C8.27931 9.1539 8.10018 9.88602 8.03231 10.7089C7.96518 11.5232 8.011 12.3741 8.09268 13.1077C8.18018 13.8936 8.87962 14.4854 9.75831 14.4854H13.0788C14.0264 14.4854 14.8251 13.7784 14.9401 12.8378L15.2477 10.3188C15.3388 9.5739 14.7575 8.91727 14.007 8.91727H11.6826C11.486 8.91727 11.3009 8.82477 11.1828 8.66752C11.0647 8.51027 11.0276 8.30665 11.0825 8.11783C11.1496 7.88683 11.2208 7.67683 11.2824 7.49533C11.3017 7.43846 11.32 7.38433 11.337 7.33327C11.4109 7.1109 11.4639 6.93171 11.4954 6.74871C11.5544 6.4059 11.5493 5.98152 11.3259 5.22059C11.2322 4.90141 11.0092 4.61216 10.6959 4.39846C10.5486 4.29798 10.3451 4.28576 10.1322 4.39718ZM9.55243 3.2898C10.0902 3.00821 10.7991 2.95574 11.4003 3.36583C11.9124 3.71515 12.3376 4.22904 12.5254 4.8685C12.7862 5.75705 12.8272 6.38008 12.7274 6.96058C12.6835 7.21565 12.6148 7.44802 12.5431 7.66727H14.007C15.5079 7.66727 16.6706 8.98058 16.4886 10.4704L16.1808 12.9894C15.9893 14.5571 14.6581 15.7354 13.0788 15.7354H9.75831C8.33268 15.7354 7.01781 14.7503 6.85037 13.246C6.7635 12.4657 6.71052 11.5285 6.78656 10.6062C6.86187 9.6924 7.06787 8.73921 7.53987 7.96646C8.11231 7.02927 8.38362 5.84136 8.50112 4.79341C8.57781 4.10991 9.01862 3.56931 9.55243 3.2898Z" fill="#ED3A3A"/>
<path d="M3.625 9.48633C3.625 8.79596 4.18464 8.23633 4.875 8.23633C5.56536 8.23633 6.125 8.79596 6.125 9.48633V13.8613C6.125 14.5517 5.56536 15.1113 4.875 15.1113C4.18464 15.1113 3.625 14.5517 3.625 13.8613V9.48633Z" fill="#ED3A3A"/>
<path d="M9 5L10.5 4L12 5.5V8L15 8.5L15.5 9.5L15 13.5L14 15H9L7.5 14V10L8.5 7.5L9 5Z" fill="#ED3A3A"/>
</g>
</svg>
