<svg width="21" height="20" viewBox="0 0 21 20" fill="none" xmlns="http://www.w3.org/2000/svg">
<g clip-path="url(#clip0_851_2765)">
<path fill-rule="evenodd" clip-rule="evenodd" d="M10.1322 4.39785C9.91556 4.51133 9.76768 4.71647 9.74331 4.93339C9.61712 6.05909 9.31681 7.45607 8.60662 8.61875C8.27931 9.15457 8.10018 9.88669 8.03231 10.7096C7.96518 11.5239 8.011 12.3748 8.09268 13.1084C8.18018 13.8943 8.87962 14.4861 9.75831 14.4861H13.0788C14.0264 14.4861 14.8251 13.7791 14.9401 12.8385L15.2477 10.3195C15.3388 9.57457 14.7575 8.91794 14.007 8.91794H11.6826C11.486 8.91794 11.3009 8.82544 11.1828 8.66819C11.0647 8.51094 11.0276 8.30732 11.0825 8.1185C11.1496 7.8875 11.2208 7.6775 11.2824 7.496C11.3017 7.43913 11.32 7.385 11.337 7.33394C11.4109 7.11157 11.4639 6.93238 11.4954 6.74938C11.5544 6.40657 11.5493 5.98219 11.3259 5.22126C11.2322 4.90208 11.0092 4.61283 10.6959 4.39913C10.5486 4.29865 10.3451 4.28643 10.1322 4.39785ZM9.55243 3.29047C10.0902 3.00888 10.7991 2.95641 11.4003 3.3665C11.9124 3.71582 12.3376 4.22971 12.5254 4.86917C12.7862 5.75772 12.8272 6.38075 12.7274 6.96125C12.6835 7.21632 12.6148 7.44869 12.5431 7.66794H14.007C15.5079 7.66794 16.6706 8.98125 16.4886 10.4711L16.1808 12.9901C15.9893 14.5578 14.6581 15.7361 13.0788 15.7361H9.75831C8.33268 15.7361 7.01781 14.751 6.85037 13.2467C6.7635 12.4664 6.71052 11.5292 6.78656 10.6069C6.86187 9.69307 7.06787 8.73988 7.53987 7.96713C8.11231 7.02994 8.38362 5.84203 8.50112 4.79408C8.57781 4.11058 9.01862 3.56998 9.55243 3.29047Z" fill="#ED3A3A"/>
<path d="M3.625 9.48608C3.625 8.79571 4.18464 8.23608 4.875 8.23608C5.56536 8.23608 6.125 8.79571 6.125 9.48608V13.8611C6.125 14.5515 5.56536 15.1111 4.875 15.1111C4.18464 15.1111 3.625 14.5515 3.625 13.8611V9.48608Z" fill="#ED3A3A"/>
</g>
<defs>
<clipPath id="clip0_851_2765">
<rect width="20" height="20" fill="white" transform="translate(0.5)"/>
</clipPath>
</defs>
</svg>
