<svg width="17" height="21" viewBox="0 0 17 21" fill="none" xmlns="http://www.w3.org/2000/svg">
<path d="M17 16.6905V17.6429H0V16.6905L1.88889 14.7857V9.07143C1.88889 6.11905 3.80611 3.51905 6.61111 2.68095V2.40476C6.61111 1.89959 6.81012 1.4151 7.16435 1.05789C7.51859 0.70068 7.99904 0.5 8.5 0.5C9.00096 0.5 9.48141 0.70068 9.83565 1.05789C10.1899 1.4151 10.3889 1.89959 10.3889 2.40476V2.68095C13.1939 3.51905 15.1111 6.11905 15.1111 9.07143V14.7857L17 16.6905ZM10.3889 18.5952C10.3889 19.1004 10.1899 19.5849 9.83565 19.9421C9.48141 20.2993 9.00096 20.5 8.5 20.5C7.99904 20.5 7.51859 20.2993 7.16435 19.9421C6.81012 19.5849 6.61111 19.1004 6.61111 18.5952" fill="black"/>
</svg>
