<svg width="24" height="24" viewBox="0 0 24 24" fill="none" xmlns="http://www.w3.org/2000/svg">
<path d="M19.1401 12.9401C19.1801 12.6401 19.2001 12.3301 19.2001 12.0001C19.2001 11.6801 19.1801 11.3601 19.1301 11.0601L21.1601 9.48008C21.3401 9.34009 21.3901 9.07009 21.2801 8.87009L19.3601 5.55009C19.2401 5.33009 18.9901 5.26009 18.7701 5.33009L16.3801 6.29009C15.8801 5.91009 15.3501 5.59009 14.7601 5.35009L14.4001 2.81009C14.3601 2.57009 14.1601 2.40009 13.9201 2.40009H10.0801C9.84011 2.40009 9.65011 2.57009 9.61011 2.81009L9.25011 5.35009C8.66011 5.59009 8.12011 5.92009 7.63011 6.29009L5.24011 5.33009C5.02011 5.25009 4.77011 5.33009 4.65011 5.55009L2.74011 8.87009C2.62011 9.08009 2.66011 9.34009 2.86011 9.48008L4.89011 11.0601C4.84011 11.3601 4.80011 11.6901 4.80011 12.0001C4.80011 12.3101 4.82011 12.6401 4.87011 12.9401L2.84011 14.5201C2.66011 14.6601 2.61011 14.9301 2.72011 15.1301L4.64011 18.4501C4.76011 18.6701 5.01011 18.7401 5.23011 18.6701L7.62011 17.7101C8.12011 18.0901 8.65011 18.4101 9.24011 18.6501L9.60011 21.1901C9.65011 21.4301 9.84011 21.6001 10.0801 21.6001H13.9201C14.1601 21.6001 14.3601 21.4301 14.3901 21.1901L14.7501 18.6501C15.3401 18.4101 15.8801 18.0901 16.3701 17.7101L18.7601 18.6701C18.9801 18.7501 19.2301 18.6701 19.3501 18.4501L21.2701 15.1301C21.3901 14.9101 21.3401 14.6601 21.1501 14.5201L19.1401 12.9401ZM12.0001 15.6001C10.0201 15.6001 8.40011 13.9801 8.40011 12.0001C8.40011 10.0201 10.0201 8.40008 12.0001 8.40008C13.9801 8.40008 15.6001 10.0201 15.6001 12.0001C15.6001 13.9801 13.9801 15.6001 12.0001 15.6001Z" fill="#B5B5B5"/>
</svg>
