<svg width="36" height="36" viewBox="0 0 36 36" fill="none" xmlns="http://www.w3.org/2000/svg">
<rect width="36" height="36" rx="18" fill="#B5B5B5"/>
<path d="M12.9961 28.6816C12.3125 28.6816 11.9316 28.1934 11.9316 27.4414V24.9023H11.4629C8.55273 24.9023 6.99023 23.3008 6.99023 20.4297V12.9492C6.99023 10.0781 8.55273 8.47656 11.4629 8.47656H24.041C26.9512 8.47656 28.5137 10.0879 28.5137 12.9492V20.4297C28.5137 23.291 26.9512 24.9023 24.041 24.9023H17.7715L14.4023 27.9004C13.8066 28.4277 13.4746 28.6816 12.9961 28.6816ZM13.3965 26.8945L16.5215 23.7891C16.8926 23.4082 17.166 23.3301 17.7129 23.3301H24.041C26.0039 23.3301 26.9414 22.3242 26.9414 20.4199V12.9492C26.9414 11.0449 26.0039 10.0488 24.041 10.0488H11.4629C9.49023 10.0488 8.5625 11.0449 8.5625 12.9492V20.4199C8.5625 22.3242 9.49023 23.3301 11.4629 23.3301H12.6641C13.1914 23.3301 13.3965 23.5352 13.3965 24.0625V26.8945ZM12.9766 18.0859C12.2051 18.0859 11.5801 17.4609 11.5801 16.6895C11.5801 15.918 12.2051 15.293 12.9766 15.293C13.748 15.293 14.373 15.918 14.373 16.6895C14.373 17.4609 13.748 18.0859 12.9766 18.0859ZM17.7617 18.0859C16.9902 18.0859 16.3555 17.4609 16.3555 16.6895C16.3555 15.918 16.9902 15.293 17.7617 15.293C18.5234 15.293 19.1582 15.918 19.1582 16.6895C19.1582 17.4609 18.5234 18.0859 17.7617 18.0859ZM22.5371 18.0859C21.7656 18.0859 21.1406 17.4609 21.1406 16.6895C21.1406 15.918 21.7656 15.293 22.5371 15.293C23.3086 15.293 23.9336 15.918 23.9336 16.6895C23.9336 17.4609 23.3086 18.0859 22.5371 18.0859Z" fill="white"/>
</svg>
