<svg width="36" height="36" viewBox="0 0 36 36" fill="none" xmlns="http://www.w3.org/2000/svg">
<rect width="36" height="36" rx="18" fill="#B5B5B5"/>
<path d="M18.46 25.0186C16.623 25.0186 15.4189 24.2979 14.9004 22.9531L11.9121 25.6074C11.376 26.0732 11.0771 26.3018 10.6465 26.3018C10.0312 26.3018 9.68848 25.8711 9.68848 25.1943V22.9004H9.2666C6.64746 22.9004 5.24121 21.459 5.24121 18.8838V12.1426C5.24121 9.56738 6.64746 8.11719 9.2666 8.11719H20.5869C23.2061 8.11719 24.6123 9.56738 24.6123 12.1426V12.5557H26.625C29.1562 12.5557 30.4834 13.918 30.4834 16.4141V21.1689C30.4834 23.6562 29.1562 25.0186 26.625 25.0186H26.4404V27.1279C26.4404 27.7959 26.0977 28.2266 25.4912 28.2266C25.0693 28.2266 24.7793 27.9893 24.2432 27.5322L21.3076 25.0186H18.46ZM11.0068 22.1533V24.6934L13.8193 21.9072C14.083 21.6348 14.2939 21.5293 14.6104 21.5029C14.6104 21.3975 14.6016 21.2832 14.6016 21.1689V16.4141C14.6016 13.918 15.9287 12.5557 18.46 12.5557H23.1973V12.1514C23.1973 10.4375 22.3535 9.53223 20.5869 9.53223H9.2666C7.49121 9.53223 6.65625 10.4375 6.65625 12.1514V18.875C6.65625 20.5889 7.49121 21.4854 9.2666 21.4854H10.3477C10.8223 21.4854 11.0068 21.6699 11.0068 22.1533ZM18.4863 23.6035H21.2549C21.6152 23.6035 21.8613 23.7002 22.1514 23.9727L25.1221 26.627V24.3242C25.1221 23.832 25.4209 23.6035 25.7988 23.6035H26.6074C28.3213 23.6035 29.0684 22.7949 29.0684 21.1426V16.4316C29.0684 14.7881 28.3213 13.9707 26.6074 13.9707H18.4863C16.7637 13.9707 16.0254 14.7881 16.0254 16.4316V21.1514C16.0254 22.7949 16.7637 23.6035 18.4863 23.6035Z" fill="white"/>
</svg>
