<svg width="16" height="16" viewBox="0 0 16 16" fill="none" xmlns="http://www.w3.org/2000/svg">
<path d="M4.66652 7.33325L7.33319 1.33325C7.86362 1.33325 8.37233 1.54397 8.7474 1.91904C9.12248 2.29411 9.33319 2.80282 9.33319 3.33325V5.99992H13.1065C13.2998 5.99773 13.4912 6.03759 13.6676 6.11673C13.8439 6.19587 14.0009 6.31241 14.1278 6.45826C14.2546 6.60411 14.3482 6.7758 14.4021 6.96142C14.456 7.14704 14.4689 7.34216 14.4399 7.53325L13.5199 13.5333C13.4716 13.8512 13.3101 14.141 13.0651 14.3493C12.8201 14.5575 12.5081 14.6702 12.1865 14.6666H4.66652M4.66652 7.33325V14.6666M4.66652 7.33325H2.66652C2.3129 7.33325 1.97376 7.47373 1.72372 7.72378C1.47367 7.97382 1.33319 8.31296 1.33319 8.66658V13.3333C1.33319 13.6869 1.47367 14.026 1.72372 14.2761C1.97376 14.5261 2.3129 14.6666 2.66652 14.6666H4.66652" stroke="black" stroke-width="1.33333" stroke-linecap="round" stroke-linejoin="round"/>
</svg>
